<svg width="25" height="25" viewBox="0 0 25 25" fill="none" xmlns="http://www.w3.org/2000/svg">
    <rect width="24.1482" height="24.1482" rx="10.9764" fill="white"/>
    <path d="M9.05559 10.0618H9.06566M15.0926 10.0618H15.1027M3.01855 12.0741C3.01855 13.2633 3.25278 14.4409 3.70787 15.5395C4.16295 16.6382 4.82998 17.6365 5.67087 18.4774C6.51175 19.3182 7.51003 19.9853 8.6087 20.4404C9.70737 20.8954 10.8849 21.1297 12.0741 21.1297C13.2633 21.1297 14.4409 20.8954 15.5395 20.4404C16.6382 19.9853 17.6365 19.3182 18.4774 18.4774C19.3182 17.6365 19.9853 16.6382 20.4404 15.5395C20.8954 14.4409 21.1297 13.2633 21.1297 12.0741C21.1297 10.8849 20.8954 9.70737 20.4404 8.6087C19.9853 7.51003 19.3182 6.51175 18.4774 5.67087C17.6365 4.82998 16.6382 4.16295 15.5395 3.70787C14.4409 3.25278 13.2633 3.01855 12.0741 3.01855C10.8849 3.01855 9.70737 3.25278 8.6087 3.70787C7.51003 4.16295 6.51175 4.82998 5.67087 5.67087C4.82998 6.51175 4.16295 7.51003 3.70787 8.6087C3.25278 9.70737 3.01855 10.8849 3.01855 12.0741Z" stroke="#16577F" stroke-width="2.19529" stroke-linecap="round" stroke-linejoin="round"/>
    <path d="M9.55859 15.0928C9.88648 15.4274 10.2779 15.6933 10.7098 15.8748C11.1417 16.0563 11.6055 16.1498 12.074 16.1498C12.5425 16.1498 13.0063 16.0563 13.4383 15.8748C13.8702 15.6933 14.2616 15.4274 14.5895 15.0928" stroke="#16577F" stroke-width="2.19529" stroke-linecap="round" stroke-linejoin="round"/>
</svg>
